<svg width="321" height="52" fill="none" xmlns="http://www.w3.org/2000/svg"><ellipse cx="240.555" cy="48.127" rx="2.681" ry="2.89" fill="#F8D24E"/><ellipse cx="246.365" cy="44.274" rx="2.681" ry="2.89" fill="#F8D24E"/><ellipse cx="253.067" cy="39.939" rx="2.681" ry="2.89" fill="#F8D24E"/><ellipse cx="259.325" cy="36.086" rx="2.681" ry="2.89" fill="#F8D24E"/><ellipse cx="255.748" cy="46.2" rx="2.681" ry="2.89" fill="#F8D24E"/><ellipse cx="261.558" cy="42.347" rx="2.681" ry="2.89" fill="#F8D24E"/><ellipse cx="268.262" cy="38.013" rx="2.681" ry="2.89" fill="#F8D24E"/><ellipse cx="274.519" cy="34.16" rx="2.681" ry="2.89" fill="#F8D24E"/><ellipse cx="268.711" cy="44.756" rx="2.681" ry="2.89" fill="#F8D24E"/><ellipse cx="274.521" cy="40.902" rx="2.681" ry="2.89" fill="#F8D24E"/><ellipse cx="281.225" cy="36.568" rx="2.681" ry="2.89" fill="#F8D24E"/><ellipse cx="287.479" cy="32.715" rx="2.681" ry="2.89" fill="#F8D24E"/><ellipse cx="281.222" cy="42.829" rx="2.681" ry="2.89" fill="#F8D24E"/><ellipse cx="287.031" cy="38.976" rx="2.681" ry="2.89" fill="#F8D24E"/><ellipse cx="293.735" cy="34.641" rx="2.681" ry="2.89" fill="#F8D24E"/><ellipse cx="299.992" cy="30.788" rx="2.681" ry="2.89" fill="#F8D24E"/><ellipse cx="285.246" cy="48.127" rx="2.681" ry="2.89" fill="#F8D24E"/><ellipse cx="291.056" cy="44.274" rx="2.681" ry="2.89" fill="#F8D24E"/><ellipse cx="299.1" cy="48.608" rx="2.681" ry="2.89" fill="#F8D24E"/><ellipse cx="297.761" cy="39.939" rx="2.681" ry="2.89" fill="#F8D24E"/><ellipse cx="305.805" cy="44.274" rx="2.681" ry="2.89" fill="#F8D24E"/><ellipse cx="312.061" cy="48.608" rx="2.681" ry="2.89" fill="#F8D24E"/><ellipse cx="304.016" cy="36.086" rx="2.681" ry="2.89" fill="#F8D24E"/><ellipse cx="312.061" cy="40.42" rx="2.681" ry="2.89" fill="#F8D24E"/><ellipse cx="318.318" cy="44.755" rx="2.681" ry="2.89" fill="#F8D24E"/><ellipse cx="213.296" cy="16.34" rx="2.681" ry="2.89" fill="#F8D24E"/><ellipse cx="219.104" cy="12.486" rx="2.681" ry="2.89" fill="#F8D24E"/><ellipse cx="225.81" cy="8.152" rx="2.681" ry="2.89" fill="#F8D24E"/><ellipse cx="232.064" cy="4.299" rx="2.681" ry="2.89" fill="#F8D24E"/><ellipse cx="202.121" cy="15.857" rx="2.681" ry="2.89" fill="#F8D24E"/><ellipse cx="207.93" cy="12.004" rx="2.681" ry="2.89" fill="#F8D24E"/><ellipse cx="214.634" cy="7.67" rx="2.681" ry="2.89" fill="#F8D24E"/><ellipse cx="220.889" cy="3.817" rx="2.681" ry="2.89" fill="#F8D24E"/><ellipse cx="227.147" cy="48.127" rx="2.681" ry="2.89" fill="#F8D24E"/><ellipse cx="232.956" cy="44.274" rx="2.681" ry="2.89" fill="#F8D24E"/><ellipse cx="239.66" cy="39.939" rx="2.681" ry="2.89" fill="#F8D24E"/><ellipse cx="245.917" cy="36.086" rx="2.681" ry="2.89" fill="#F8D24E"/><ellipse cx="219.997" cy="45.237" rx="2.681" ry="2.89" fill="#F8D24E"/><ellipse cx="225.806" cy="41.384" rx="2.681" ry="2.89" fill="#F8D24E"/><ellipse cx="232.51" cy="37.049" rx="2.681" ry="2.89" fill="#F8D24E"/><ellipse cx="238.766" cy="33.196" rx="2.681" ry="2.89" fill="#F8D24E"/><ellipse cx="222.679" cy="35.123" rx="2.681" ry="2.89" fill="#F8D24E"/><ellipse cx="228.487" cy="31.27" rx="2.681" ry="2.89" fill="#F8D24E"/><ellipse cx="235.193" cy="26.935" rx="2.681" ry="2.89" fill="#F8D24E"/><ellipse cx="241.448" cy="23.082" rx="2.681" ry="2.89" fill="#F8D24E"/><ellipse cx="222.679" cy="18.265" rx="2.681" ry="2.89" fill="#F8D24E"/><ellipse cx="228.487" cy="14.412" rx="2.681" ry="2.89" fill="#F8D24E"/><ellipse cx="235.193" cy="10.078" rx="2.681" ry="2.89" fill="#F8D24E"/><ellipse cx="241.448" cy="6.225" rx="2.681" ry="2.89" fill="#F8D24E"/><ellipse cx="221.338" cy="27.417" rx="2.681" ry="2.89" fill="#F8D24E"/><ellipse cx="227.148" cy="23.564" rx="2.681" ry="2.89" fill="#F8D24E"/><ellipse cx="233.851" cy="19.229" rx="2.681" ry="2.89" fill="#F8D24E"/><ellipse cx="240.107" cy="15.376" rx="2.681" ry="2.89" fill="#F8D24E"/><ellipse cx="193.182" cy="13.449" rx="2.681" ry="2.89" fill="#F8D24E"/><ellipse cx="198.993" cy="9.596" rx="2.681" ry="2.89" fill="#F8D24E"/><ellipse cx="205.697" cy="5.262" rx="2.681" ry="2.89" fill="#F8D24E"/><path d="M205.25 16.339c1.481 0 2.681-1.294 2.681-2.89s-1.2-2.89-2.681-2.89-2.682 1.294-2.682 2.89 1.201 2.89 2.682 2.89Z" fill="#F8D24E"/><ellipse rx="2.726" ry="2.928" transform="matrix(.98669 -.16302 .14084 .9901 88.255 35.341)" fill="#F8D24E"/><ellipse rx="2.726" ry="2.928" transform="matrix(.98669 -.16302 .14084 .9901 93.534 30.512)" fill="#F8D24E"/><ellipse rx="2.726" ry="2.928" transform="matrix(.98669 -.16302 .14084 .9901 99.64 25.054)" fill="#F8D24E"/><ellipse rx="2.726" ry="2.928" transform="matrix(.98669 -.16302 .14084 .9901 105.366 20.152)" fill="#F8D24E"/><ellipse cx="2.72" cy="33.551" rx="2.72" ry="2.82" fill="#F8D24E"/><ellipse cx="8.611" cy="29.791" rx="2.72" ry="2.82" fill="#F8D24E"/><ellipse cx="15.413" cy="25.562" rx="2.72" ry="2.82" fill="#F8D24E"/><ellipse cx="21.758" cy="21.802" rx="2.72" ry="2.82" fill="#F8D24E"/><ellipse cx="5.44" cy="40.6" rx="2.72" ry="2.82" fill="#F8D24E"/><ellipse cx="11.333" cy="36.84" rx="2.72" ry="2.82" fill="#F8D24E"/><ellipse cx="18.134" cy="32.611" rx="2.72" ry="2.82" fill="#F8D24E"/><ellipse cx="24.479" cy="28.851" rx="2.72" ry="2.82" fill="#F8D24E"/><ellipse cx="12.238" cy="44.36" rx="2.72" ry="2.82" fill="#F8D24E"/><ellipse cx="18.132" cy="40.6" rx="2.72" ry="2.82" fill="#F8D24E"/><ellipse cx="24.931" cy="36.371" rx="2.72" ry="2.82" fill="#F8D24E"/><ellipse cx="31.276" cy="32.611" rx="2.72" ry="2.82" fill="#F8D24E"/><ellipse cx="19.943" cy="46.71" rx="2.72" ry="2.82" fill="#F8D24E"/><ellipse cx="25.836" cy="42.95" rx="2.72" ry="2.82" fill="#F8D24E"/><ellipse cx="32.638" cy="38.721" rx="2.72" ry="2.82" fill="#F8D24E"/><ellipse cx="38.981" cy="34.961" rx="2.72" ry="2.82" fill="#F8D24E"/><ellipse cx="29.917" cy="47.18" rx="2.72" ry="2.82" fill="#F8D24E"/><ellipse cx="35.81" cy="43.421" rx="2.72" ry="2.82" fill="#F8D24E"/><ellipse cx="42.61" cy="39.191" rx="2.72" ry="2.82" fill="#F8D24E"/><ellipse cx="48.955" cy="35.431" rx="2.72" ry="2.82" fill="#F8D24E"/><ellipse cx="41.704" cy="47.18" rx="2.72" ry="2.82" fill="#F8D24E"/><ellipse cx="47.596" cy="43.42" rx="2.72" ry="2.82" fill="#F8D24E"/><ellipse cx="54.396" cy="39.19" rx="2.72" ry="2.82" fill="#F8D24E"/><ellipse cx="60.742" cy="35.431" rx="2.72" ry="2.82" fill="#F8D24E"/><ellipse cx="51.674" cy="46.71" rx="2.72" ry="2.82" fill="#F8D24E"/><ellipse cx="57.566" cy="42.95" rx="2.72" ry="2.82" fill="#F8D24E"/><ellipse cx="64.367" cy="38.721" rx="2.72" ry="2.82" fill="#F8D24E"/><ellipse cx="70.712" cy="34.961" rx="2.72" ry="2.82" fill="#F8D24E"/><ellipse cx="63.006" cy="46.24" rx="2.72" ry="2.82" fill="#F8D24E"/><ellipse cx="68.898" cy="42.48" rx="2.72" ry="2.82" fill="#F8D24E"/><ellipse cx="75.699" cy="38.251" rx="2.72" ry="2.82" fill="#F8D24E"/><ellipse cx="82.044" cy="34.491" rx="2.72" ry="2.82" fill="#F8D24E"/><ellipse cx="73.432" cy="34.021" rx="2.72" ry="2.82" fill="#F8D24E"/><ellipse cx="79.324" cy="30.261" rx="2.72" ry="2.82" fill="#F8D24E"/><ellipse cx="86.124" cy="26.032" rx="2.72" ry="2.82" fill="#F8D24E"/><ellipse cx="92.47" cy="22.271" rx="2.72" ry="2.82" fill="#F8D24E"/></svg>