<svg width="24" height="45" viewBox="0 0 24 45" fill="none" xmlns="http://www.w3.org/2000/svg">
<path d="M22.487 19.9247C24.7857 13.7591 20.0253 10.3841 16.8697 8.16595C16.2664 7.71277 15.663 7.28941 15.1743 6.90183C14.3008 6.17346 13.6574 5.21252 13.3205 4.13327C12.9836 3.05402 12.9673 1.90186 13.2737 0.813754C13.3052 0.699909 13.3044 0.579702 13.2715 0.466265C13.2385 0.352829 13.1746 0.250524 13.0868 0.170525C12.999 0.0905255 12.8907 0.0359104 12.7736 0.0126413C12.6565 -0.0106278 12.5353 -0.00165465 12.423 0.0385814C11.3603 0.454105 10.3722 1.03597 9.49671 1.76185C8.65548 2.40281 7.97396 3.22564 7.50437 4.16725C7.03478 5.10886 6.7896 6.14424 6.78764 7.19401C6.19265 7.65757 5.6666 8.20154 5.22495 8.80994C4.4136 9.90451 4.00682 11.2411 4.07254 12.5963C3.10609 13.4736 2.3863 14.5836 1.98341 15.8178C1.58051 17.052 1.50827 18.3684 1.77376 19.6385C1.38927 19.8681 1.09167 20.216 0.926649 20.6289C0.761625 21.0418 0.738292 21.4969 0.860252 21.9241C0.982212 22.3514 1.24272 22.7273 1.60176 22.9941C1.9608 23.2609 2.39853 23.4039 2.84773 23.401H2.88997V26.9072C2.88997 27.263 3.03299 27.6043 3.28758 27.8559C3.54217 28.1075 3.88747 28.2488 4.24752 28.2488H5.30339L7.02296 42.9771C7.05871 43.305 7.21591 43.6082 7.46432 43.8283C7.71272 44.0485 8.03476 44.1701 8.36843 44.1697H15.5242C15.8582 44.1689 16.1803 44.0471 16.4294 43.8273C16.6785 43.6075 16.8373 43.3049 16.8758 42.9771L18.5953 28.2488H19.6512C20.0112 28.2488 20.3565 28.1075 20.6111 27.8559C20.8657 27.6043 21.0087 27.263 21.0087 26.9072V23.401H21.051C21.5967 23.401 22.12 23.1868 22.5058 22.8055C22.8917 22.4242 23.1084 21.907 23.1084 21.3677C23.1112 21.0986 23.0592 20.8316 22.9555 20.5827C22.8519 20.3338 22.6987 20.108 22.5051 19.9187L22.487 19.9247ZM6.99882 8.73838C7.86765 11.9643 11.2223 13.2344 14.2813 14.3673C14.3636 14.4173 14.456 14.4489 14.5519 14.4596C14.6479 14.4704 14.745 14.4601 14.8365 14.4296C14.928 14.399 15.0116 14.349 15.0813 14.2829C15.151 14.2168 15.2051 14.1364 15.2398 14.0473C15.2745 13.9583 15.2889 13.8627 15.282 13.7675C15.2752 13.6723 15.2472 13.5798 15.2 13.4965C15.1529 13.4132 15.0877 13.3412 15.0093 13.2856C14.9308 13.23 14.8409 13.1921 14.7459 13.1747C11.4516 11.9404 8.3443 10.7896 8.10899 7.49215C8.05385 6.58572 8.22602 5.67986 8.6102 4.85498C8.99437 4.0301 9.57867 3.31172 10.3112 2.76361C10.7702 2.38622 11.263 2.05091 11.7834 1.76185C11.7499 2.17461 11.7499 2.58936 11.7834 3.00212C11.8533 3.94703 12.1147 4.86841 12.5521 5.71147C12.9895 6.55452 13.594 7.30203 14.3296 7.90955C14.8304 8.33291 15.4518 8.7682 16.1397 9.2333C17.7265 10.3603 19.5305 11.6184 20.6769 13.3238C21.2885 14.1984 21.6691 15.2103 21.784 16.2674C21.8988 17.3244 21.7443 18.3931 21.3345 19.3761H21.0811H18.6677C13.1712 19.3761 6.85402 17.8735 5.60507 13.6637C5.35731 12.7976 5.35933 11.8804 5.61093 11.0154C5.86252 10.1504 6.35368 9.37205 7.02898 8.7682L6.99882 8.73838ZM11.9463 29.0657L13.9616 31.0573L11.9463 33.0489L9.93112 31.0454L11.9463 29.0657ZM16.568 34.2952L14.9028 35.9409L12.8876 33.9493L14.9028 31.9637L16.6525 33.687L16.568 34.2952ZM11.9463 38.8627L9.93112 36.8711L11.9463 34.8795L13.9616 36.8711L11.9463 38.8627ZM11.0232 33.9613L9.00799 35.9528L7.33066 34.2952L7.25826 33.6989L9.00799 31.9756L11.0232 33.9613ZM8.07883 36.8711L7.67458 37.2706L7.572 36.3643L8.07883 36.8711ZM7.86766 38.9104L9.00799 37.7834L11.2223 39.9897C11.2336 40.0342 11.2478 40.0781 11.2646 40.1209H8.00642L7.86766 38.9104ZM14.8907 37.7834L16.0311 38.9104L15.8923 40.103H12.5437L14.8907 37.7834ZM16.2181 37.2706L15.8138 36.8711L16.3267 36.3643L16.2181 37.2706ZM16.8215 32.0591L15.8138 31.0454L17.093 29.7813L16.8215 32.0591ZM14.8847 30.1391L12.972 28.2548H16.7973L14.8847 30.1391ZM9.00197 30.1391L7.08932 28.2548H10.9146L9.00197 30.1391ZM15.5182 42.8757H8.36843C8.35767 42.8745 8.34766 42.8697 8.34 42.8621C8.33234 42.8545 8.32747 42.8446 8.32619 42.834L8.15725 41.4029H15.7354L15.5725 42.834C15.571 42.8456 15.5653 42.8562 15.5564 42.8639C15.5475 42.8716 15.5361 42.8758 15.5242 42.8757H15.5182ZM21.051 22.1011H18.9513C18.8601 22.0925 18.768 22.1028 18.681 22.1313C18.594 22.1599 18.514 22.2061 18.4461 22.267C18.3783 22.328 18.3241 22.4022 18.287 22.4851C18.2499 22.5679 18.2307 22.6575 18.2307 22.7481C18.2307 22.8387 18.2499 22.9283 18.287 23.0111C18.3241 23.094 18.3783 23.1683 18.4461 23.2292C18.514 23.2901 18.594 23.3363 18.681 23.3649C18.768 23.3935 18.8601 23.4037 18.9513 23.3951H19.6995V26.9012C19.698 26.9128 19.6923 26.9235 19.6834 26.9312C19.6745 26.9389 19.663 26.9431 19.6512 26.943H4.22338C4.21156 26.9431 4.20011 26.9389 4.19121 26.9312C4.18232 26.9235 4.1766 26.9128 4.17512 26.9012V23.3951H16.1276C16.2904 23.3796 16.4415 23.3048 16.5514 23.1852C16.6614 23.0655 16.7223 22.9097 16.7223 22.7481C16.7223 22.5865 16.6614 22.4307 16.5514 22.3111C16.4415 22.1914 16.2904 22.1166 16.1276 22.1011H2.85377C2.75028 22.1104 2.64598 22.0982 2.54752 22.0653C2.44907 22.0325 2.3586 21.9798 2.2819 21.9105C2.2052 21.8412 2.14395 21.7569 2.10204 21.663C2.06013 21.569 2.03848 21.4674 2.03848 21.3647C2.03848 21.262 2.06013 21.1605 2.10204 21.0665C2.14395 20.9725 2.2052 20.8882 2.2819 20.8189C2.3586 20.7497 2.44907 20.6969 2.54752 20.6641C2.64598 20.6313 2.75028 20.6191 2.85377 20.6283H4.22338C4.38616 20.6129 4.53727 20.538 4.64723 20.4184C4.75719 20.2988 4.81812 20.143 4.81812 19.9813C4.81812 19.8197 4.75719 19.6639 4.64723 19.5443C4.53727 19.4247 4.38616 19.3498 4.22338 19.3344H3.01667C2.84384 18.4271 2.87192 17.4936 3.09897 16.5981C3.32603 15.7025 3.74668 14.8662 4.33198 14.1467C4.75433 15.4466 5.84037 17.2235 8.55547 18.6367C11.1077 19.9545 14.4865 20.6283 18.5953 20.6283H21.0087C21.1122 20.6191 21.2165 20.6313 21.315 20.6641C21.4135 20.6969 21.5039 20.7497 21.5806 20.8189C21.6573 20.8882 21.7186 20.9725 21.7605 21.0665C21.8024 21.1605 21.824 21.262 21.824 21.3647C21.824 21.4674 21.8024 21.569 21.7605 21.663C21.7186 21.7569 21.6573 21.8412 21.5806 21.9105C21.5039 21.9798 21.4135 22.0325 21.315 22.0653C21.2165 22.0982 21.1122 22.1104 21.0087 22.1011H21.051Z" fill="#F8D24E"/>
</svg>
