<svg width="321" height="52" viewBox="0 0 321 52" fill="none" xmlns="http://www.w3.org/2000/svg">
<ellipse cx="240.555" cy="48.1269" rx="2.68145" ry="2.8898" fill="#F8D24E"/>
<ellipse cx="246.365" cy="44.2736" rx="2.68145" ry="2.8898" fill="#F8D24E"/>
<ellipse cx="253.067" cy="39.9389" rx="2.68145" ry="2.8898" fill="#F8D24E"/>
<ellipse cx="259.325" cy="36.0856" rx="2.68145" ry="2.8898" fill="#F8D24E"/>
<ellipse cx="255.748" cy="46.2003" rx="2.68145" ry="2.8898" fill="#F8D24E"/>
<ellipse cx="261.558" cy="42.3473" rx="2.68145" ry="2.8898" fill="#F8D24E"/>
<ellipse cx="268.262" cy="38.0126" rx="2.68145" ry="2.8898" fill="#F8D24E"/>
<ellipse cx="274.519" cy="34.1598" rx="2.68145" ry="2.8898" fill="#F8D24E"/>
<ellipse cx="268.711" cy="44.7558" rx="2.68145" ry="2.8898" fill="#F8D24E"/>
<ellipse cx="274.521" cy="40.9023" rx="2.68145" ry="2.8898" fill="#F8D24E"/>
<ellipse cx="281.225" cy="36.5675" rx="2.68145" ry="2.8898" fill="#F8D24E"/>
<ellipse cx="287.479" cy="32.7152" rx="2.68145" ry="2.8898" fill="#F8D24E"/>
<ellipse cx="281.222" cy="42.8293" rx="2.68145" ry="2.8898" fill="#F8D24E"/>
<ellipse cx="287.031" cy="38.9757" rx="2.68145" ry="2.8898" fill="#F8D24E"/>
<ellipse cx="293.735" cy="34.6413" rx="2.68145" ry="2.8898" fill="#F8D24E"/>
<ellipse cx="299.992" cy="30.7882" rx="2.68145" ry="2.8898" fill="#F8D24E"/>
<ellipse cx="285.246" cy="48.1269" rx="2.68145" ry="2.8898" fill="#F8D24E"/>
<ellipse cx="291.056" cy="44.2736" rx="2.68145" ry="2.8898" fill="#F8D24E"/>
<ellipse cx="299.1" cy="48.6083" rx="2.68145" ry="2.8898" fill="#F8D24E"/>
<ellipse cx="297.761" cy="39.9389" rx="2.68145" ry="2.8898" fill="#F8D24E"/>
<ellipse cx="305.805" cy="44.2736" rx="2.68145" ry="2.8898" fill="#F8D24E"/>
<ellipse cx="312.061" cy="48.6083" rx="2.68145" ry="2.8898" fill="#F8D24E"/>
<ellipse cx="304.016" cy="36.0856" rx="2.68145" ry="2.8898" fill="#F8D24E"/>
<ellipse cx="312.061" cy="40.4201" rx="2.68145" ry="2.8898" fill="#F8D24E"/>
<ellipse cx="318.318" cy="44.7553" rx="2.68145" ry="2.8898" fill="#F8D24E"/>
<ellipse cx="213.296" cy="16.3395" rx="2.68145" ry="2.8898" fill="#F8D24E"/>
<ellipse cx="219.104" cy="12.486" rx="2.68145" ry="2.8898" fill="#F8D24E"/>
<ellipse cx="225.81" cy="8.15176" rx="2.68145" ry="2.8898" fill="#F8D24E"/>
<ellipse cx="232.064" cy="4.29874" rx="2.68145" ry="2.8898" fill="#F8D24E"/>
<ellipse cx="202.121" cy="15.8568" rx="2.68145" ry="2.8898" fill="#F8D24E"/>
<ellipse cx="207.93" cy="12.0041" rx="2.68145" ry="2.8898" fill="#F8D24E"/>
<ellipse cx="214.634" cy="7.66983" rx="2.68145" ry="2.8898" fill="#F8D24E"/>
<ellipse cx="220.889" cy="3.8168" rx="2.68145" ry="2.8898" fill="#F8D24E"/>
<ellipse cx="227.147" cy="48.1269" rx="2.68145" ry="2.8898" fill="#F8D24E"/>
<ellipse cx="232.956" cy="44.2736" rx="2.68145" ry="2.8898" fill="#F8D24E"/>
<ellipse cx="239.66" cy="39.9389" rx="2.68145" ry="2.8898" fill="#F8D24E"/>
<ellipse cx="245.917" cy="36.0856" rx="2.68145" ry="2.8898" fill="#F8D24E"/>
<ellipse cx="219.997" cy="45.2375" rx="2.68145" ry="2.8898" fill="#F8D24E"/>
<ellipse cx="225.806" cy="41.3842" rx="2.68145" ry="2.8898" fill="#F8D24E"/>
<ellipse cx="232.51" cy="37.0492" rx="2.68145" ry="2.8898" fill="#F8D24E"/>
<ellipse cx="238.766" cy="33.1964" rx="2.68145" ry="2.8898" fill="#F8D24E"/>
<ellipse cx="222.679" cy="35.123" rx="2.68145" ry="2.8898" fill="#F8D24E"/>
<ellipse cx="228.487" cy="31.2699" rx="2.68145" ry="2.8898" fill="#F8D24E"/>
<ellipse cx="235.193" cy="26.935" rx="2.68145" ry="2.8898" fill="#F8D24E"/>
<ellipse cx="241.448" cy="23.0822" rx="2.68145" ry="2.8898" fill="#F8D24E"/>
<ellipse cx="222.679" cy="18.2655" rx="2.68145" ry="2.8898" fill="#F8D24E"/>
<ellipse cx="228.487" cy="14.412" rx="2.68145" ry="2.8898" fill="#F8D24E"/>
<ellipse cx="235.193" cy="10.0778" rx="2.68145" ry="2.8898" fill="#F8D24E"/>
<ellipse cx="241.448" cy="6.22452" rx="2.68145" ry="2.8898" fill="#F8D24E"/>
<ellipse cx="221.338" cy="27.4174" rx="2.68145" ry="2.8898" fill="#F8D24E"/>
<ellipse cx="227.148" cy="23.5636" rx="2.68145" ry="2.8898" fill="#F8D24E"/>
<ellipse cx="233.851" cy="19.2292" rx="2.68145" ry="2.8898" fill="#F8D24E"/>
<ellipse cx="240.107" cy="15.3764" rx="2.68145" ry="2.8898" fill="#F8D24E"/>
<ellipse cx="193.182" cy="13.4491" rx="2.68145" ry="2.8898" fill="#F8D24E"/>
<ellipse cx="198.993" cy="9.59585" rx="2.68145" ry="2.8898" fill="#F8D24E"/>
<ellipse cx="205.697" cy="5.26163" rx="2.68145" ry="2.8898" fill="#F8D24E"/>
<path d="M205.25 16.3389C206.731 16.3389 207.931 15.0451 207.931 13.4491C207.931 11.8531 206.731 10.5593 205.25 10.5593C203.769 10.5593 202.568 11.8531 202.568 13.4491C202.568 15.0451 203.769 16.3389 205.25 16.3389Z" fill="#F8D24E"/>
<ellipse rx="2.726" ry="2.92772" transform="matrix(0.98669 -0.163017 0.140842 0.990092 88.2554 35.3413)" fill="#F8D24E"/>
<ellipse rx="2.726" ry="2.92772" transform="matrix(0.98669 -0.163017 0.140842 0.990092 93.5337 30.5124)" fill="#F8D24E"/>
<ellipse rx="2.726" ry="2.92772" transform="matrix(0.98669 -0.163017 0.140842 0.990092 99.6402 25.0539)" fill="#F8D24E"/>
<ellipse rx="2.726" ry="2.92772" transform="matrix(0.98669 -0.163017 0.140842 0.990092 105.366 20.1521)" fill="#F8D24E"/>
<ellipse cx="2.71977" cy="33.5512" rx="2.71977" ry="2.81979" fill="#F8D24E"/>
<ellipse cx="8.61137" cy="29.7915" rx="2.71977" ry="2.81979" fill="#F8D24E"/>
<ellipse cx="15.4131" cy="25.562" rx="2.71977" ry="2.81979" fill="#F8D24E"/>
<ellipse cx="21.7579" cy="21.8017" rx="2.71977" ry="2.81979" fill="#F8D24E"/>
<ellipse cx="5.44047" cy="40.6003" rx="2.71977" ry="2.81979" fill="#F8D24E"/>
<ellipse cx="11.3331" cy="36.8405" rx="2.71977" ry="2.81979" fill="#F8D24E"/>
<ellipse cx="18.1338" cy="32.6108" rx="2.71977" ry="2.81979" fill="#F8D24E"/>
<ellipse cx="24.4786" cy="28.851" rx="2.71977" ry="2.81979" fill="#F8D24E"/>
<ellipse cx="12.2383" cy="44.3596" rx="2.71977" ry="2.81979" fill="#F8D24E"/>
<ellipse cx="18.1319" cy="40.6001" rx="2.71977" ry="2.81979" fill="#F8D24E"/>
<ellipse cx="24.9307" cy="36.3706" rx="2.71977" ry="2.81979" fill="#F8D24E"/>
<ellipse cx="31.2764" cy="32.6108" rx="2.71977" ry="2.81979" fill="#F8D24E"/>
<ellipse cx="19.9434" cy="46.7104" rx="2.71977" ry="2.81979" fill="#F8D24E"/>
<ellipse cx="25.836" cy="42.9499" rx="2.71977" ry="2.81979" fill="#F8D24E"/>
<ellipse cx="32.6377" cy="38.7207" rx="2.71977" ry="2.81979" fill="#F8D24E"/>
<ellipse cx="38.9815" cy="34.9609" rx="2.71977" ry="2.81979" fill="#F8D24E"/>
<ellipse cx="29.917" cy="47.1804" rx="2.71977" ry="2.81979" fill="#F8D24E"/>
<ellipse cx="35.8096" cy="43.4206" rx="2.71977" ry="2.81979" fill="#F8D24E"/>
<ellipse cx="42.6104" cy="39.1906" rx="2.71977" ry="2.81979" fill="#F8D24E"/>
<ellipse cx="48.9551" cy="35.4314" rx="2.71977" ry="2.81979" fill="#F8D24E"/>
<ellipse cx="41.7041" cy="47.1801" rx="2.71977" ry="2.81979" fill="#F8D24E"/>
<ellipse cx="47.5957" cy="43.4204" rx="2.71977" ry="2.81979" fill="#F8D24E"/>
<ellipse cx="54.3956" cy="39.1904" rx="2.71977" ry="2.81979" fill="#F8D24E"/>
<ellipse cx="60.7422" cy="35.4311" rx="2.71977" ry="2.81979" fill="#F8D24E"/>
<ellipse cx="51.6739" cy="46.7102" rx="2.71977" ry="2.81979" fill="#F8D24E"/>
<ellipse cx="57.5665" cy="42.9499" rx="2.71977" ry="2.81979" fill="#F8D24E"/>
<ellipse cx="64.3672" cy="38.7207" rx="2.71977" ry="2.81979" fill="#F8D24E"/>
<ellipse cx="70.712" cy="34.9609" rx="2.71977" ry="2.81979" fill="#F8D24E"/>
<ellipse cx="63.0059" cy="46.2397" rx="2.71977" ry="2.81979" fill="#F8D24E"/>
<ellipse cx="68.8985" cy="42.4802" rx="2.71977" ry="2.81979" fill="#F8D24E"/>
<ellipse cx="75.6993" cy="38.2507" rx="2.71977" ry="2.81979" fill="#F8D24E"/>
<ellipse cx="82.044" cy="34.4907" rx="2.71977" ry="2.81979" fill="#F8D24E"/>
<ellipse cx="73.4317" cy="34.021" rx="2.71977" ry="2.81979" fill="#F8D24E"/>
<ellipse cx="79.3243" cy="30.2612" rx="2.71977" ry="2.81979" fill="#F8D24E"/>
<ellipse cx="86.1241" cy="26.0315" rx="2.71977" ry="2.81979" fill="#F8D24E"/>
<ellipse cx="92.4698" cy="22.2714" rx="2.71977" ry="2.81979" fill="#F8D24E"/>
</svg>
