<svg width="111" height="34" viewBox="0 0 111 34" fill="none" xmlns="http://www.w3.org/2000/svg">
<ellipse rx="2.726" ry="2.92772" transform="matrix(0.98669 -0.163017 0.140842 0.990092 88.2554 19.3413)" fill="#F8D24E"/>
<ellipse rx="2.726" ry="2.92772" transform="matrix(0.98669 -0.163017 0.140842 0.990092 93.5337 14.5124)" fill="#F8D24E"/>
<ellipse rx="2.726" ry="2.92772" transform="matrix(0.98669 -0.163017 0.140842 0.990092 99.6402 9.05394)" fill="#F8D24E"/>
<ellipse rx="2.726" ry="2.92772" transform="matrix(0.98669 -0.163017 0.140842 0.990092 105.366 4.15208)" fill="#F8D24E"/>
<ellipse cx="2.71977" cy="17.5512" rx="2.71977" ry="2.81979" fill="#F8D24E"/>
<ellipse cx="8.61137" cy="13.7915" rx="2.71977" ry="2.81979" fill="#F8D24E"/>
<ellipse cx="15.4131" cy="9.56197" rx="2.71977" ry="2.81979" fill="#F8D24E"/>
<ellipse cx="21.7579" cy="5.80172" rx="2.71977" ry="2.81979" fill="#F8D24E"/>
<ellipse cx="5.44047" cy="24.6003" rx="2.71977" ry="2.81979" fill="#F8D24E"/>
<ellipse cx="11.3331" cy="20.8405" rx="2.71977" ry="2.81979" fill="#F8D24E"/>
<ellipse cx="18.1338" cy="16.6108" rx="2.71977" ry="2.81979" fill="#F8D24E"/>
<ellipse cx="24.4786" cy="12.851" rx="2.71977" ry="2.81979" fill="#F8D24E"/>
<ellipse cx="12.2383" cy="28.3596" rx="2.71977" ry="2.81979" fill="#F8D24E"/>
<ellipse cx="18.1319" cy="24.6001" rx="2.71977" ry="2.81979" fill="#F8D24E"/>
<ellipse cx="24.9307" cy="20.3706" rx="2.71977" ry="2.81979" fill="#F8D24E"/>
<ellipse cx="31.2764" cy="16.6108" rx="2.71977" ry="2.81979" fill="#F8D24E"/>
<ellipse cx="19.9434" cy="30.7104" rx="2.71977" ry="2.81979" fill="#F8D24E"/>
<ellipse cx="25.836" cy="26.9499" rx="2.71977" ry="2.81979" fill="#F8D24E"/>
<ellipse cx="32.6377" cy="22.7207" rx="2.71977" ry="2.81979" fill="#F8D24E"/>
<ellipse cx="38.9815" cy="18.9609" rx="2.71977" ry="2.81979" fill="#F8D24E"/>
<ellipse cx="29.917" cy="31.1804" rx="2.71977" ry="2.81979" fill="#F8D24E"/>
<ellipse cx="35.8096" cy="27.4206" rx="2.71977" ry="2.81979" fill="#F8D24E"/>
<ellipse cx="42.6104" cy="23.1906" rx="2.71977" ry="2.81979" fill="#F8D24E"/>
<ellipse cx="48.9551" cy="19.4314" rx="2.71977" ry="2.81979" fill="#F8D24E"/>
<ellipse cx="41.7041" cy="31.1801" rx="2.71977" ry="2.81979" fill="#F8D24E"/>
<ellipse cx="47.5957" cy="27.4204" rx="2.71977" ry="2.81979" fill="#F8D24E"/>
<ellipse cx="54.3956" cy="23.1904" rx="2.71977" ry="2.81979" fill="#F8D24E"/>
<ellipse cx="60.7422" cy="19.4311" rx="2.71977" ry="2.81979" fill="#F8D24E"/>
<ellipse cx="51.6739" cy="30.7102" rx="2.71977" ry="2.81979" fill="#F8D24E"/>
<ellipse cx="57.5665" cy="26.9499" rx="2.71977" ry="2.81979" fill="#F8D24E"/>
<ellipse cx="64.3672" cy="22.7207" rx="2.71977" ry="2.81979" fill="#F8D24E"/>
<ellipse cx="70.712" cy="18.9609" rx="2.71977" ry="2.81979" fill="#F8D24E"/>
<ellipse cx="63.0059" cy="30.2397" rx="2.71977" ry="2.81979" fill="#F8D24E"/>
<ellipse cx="68.8985" cy="26.4802" rx="2.71977" ry="2.81979" fill="#F8D24E"/>
<ellipse cx="75.6993" cy="22.2507" rx="2.71977" ry="2.81979" fill="#F8D24E"/>
<ellipse cx="82.044" cy="18.4907" rx="2.71977" ry="2.81979" fill="#F8D24E"/>
<ellipse cx="73.4317" cy="18.021" rx="2.71977" ry="2.81979" fill="#F8D24E"/>
<ellipse cx="79.3243" cy="14.2612" rx="2.71977" ry="2.81979" fill="#F8D24E"/>
<ellipse cx="86.1241" cy="10.0315" rx="2.71977" ry="2.81979" fill="#F8D24E"/>
<ellipse cx="92.4698" cy="6.27145" rx="2.71977" ry="2.81979" fill="#F8D24E"/>
</svg>
