<svg width="111" height="34" viewBox="0 0 111 34" fill="none" xmlns="http://www.w3.org/2000/svg">
<ellipse cx="4.00522" cy="28" rx="4.00522" ry="4" fill="#F8D24E"/>
<ellipse cx="12.0155" cy="23" rx="4.00522" ry="4" fill="#F8D24E"/>
<ellipse cx="22.0287" cy="17" rx="4.00522" ry="4" fill="#F8D24E"/>
<ellipse cx="30.0389" cy="12" rx="4.00522" ry="4" fill="#F8D24E"/>
<ellipse cx="52.0677" cy="30" rx="4.00522" ry="4" fill="#F8D24E"/>
<ellipse cx="60.0785" cy="25" rx="4.00522" ry="4" fill="#F8D24E"/>
<ellipse cx="70.0912" cy="19" rx="4.00522" ry="4" fill="#F8D24E"/>
<ellipse cx="78.1019" cy="14" rx="4.00522" ry="4" fill="#F8D24E"/>
<ellipse cx="70.592" cy="27" rx="3.50456" ry="4" fill="#F8D24E"/>
<ellipse cx="78.6022" cy="22" rx="3.50456" ry="4" fill="#F8D24E"/>
<ellipse cx="87.6139" cy="17" rx="3.50456" ry="4" fill="#F8D24E"/>
<ellipse cx="96.6257" cy="12" rx="3.50456" ry="4" fill="#F8D24E"/>
<ellipse cx="106.639" cy="4" rx="3.50456" ry="4" fill="#F8D24E"/>
<ellipse cx="85.6115" cy="8" rx="3.50456" ry="4" fill="#F8D24E"/>
<ellipse cx="34.0443" cy="30" rx="4.00522" ry="4" fill="#F8D24E"/>
<ellipse cx="42.0545" cy="25" rx="4.00522" ry="4" fill="#F8D24E"/>
<ellipse cx="52.0677" cy="19" rx="4.00522" ry="4" fill="#F8D24E"/>
<ellipse cx="60.0785" cy="14" rx="4.00522" ry="4" fill="#F8D24E"/>
<ellipse cx="18.0233" cy="29" rx="4.00522" ry="4" fill="#F8D24E"/>
<ellipse cx="26.034" cy="24" rx="4.00522" ry="4" fill="#F8D24E"/>
<ellipse cx="36.0467" cy="18" rx="4.00522" ry="4" fill="#F8D24E"/>
<ellipse cx="44.0575" cy="13" rx="4.00522" ry="4" fill="#F8D24E"/>
</svg>
