<svg width="131" height="52" viewBox="0 0 131 52" fill="none" xmlns="http://www.w3.org/2000/svg">
<ellipse cx="50.5545" cy="48.1269" rx="2.68145" ry="2.8898" fill="#F8D24E"/>
<ellipse cx="56.365" cy="44.2736" rx="2.68145" ry="2.8898" fill="#F8D24E"/>
<ellipse cx="63.0672" cy="39.9389" rx="2.68145" ry="2.8898" fill="#F8D24E"/>
<ellipse cx="69.325" cy="36.0856" rx="2.68145" ry="2.8898" fill="#F8D24E"/>
<ellipse cx="65.7479" cy="46.2003" rx="2.68145" ry="2.8898" fill="#F8D24E"/>
<ellipse cx="71.5584" cy="42.3473" rx="2.68145" ry="2.8898" fill="#F8D24E"/>
<ellipse cx="78.2615" cy="38.0126" rx="2.68145" ry="2.8898" fill="#F8D24E"/>
<ellipse cx="84.5193" cy="34.1598" rx="2.68145" ry="2.8898" fill="#F8D24E"/>
<ellipse cx="78.7107" cy="44.7558" rx="2.68145" ry="2.8898" fill="#F8D24E"/>
<ellipse cx="84.5213" cy="40.9023" rx="2.68145" ry="2.8898" fill="#F8D24E"/>
<ellipse cx="91.2254" cy="36.5675" rx="2.68145" ry="2.8898" fill="#F8D24E"/>
<ellipse cx="97.4793" cy="32.7152" rx="2.68145" ry="2.8898" fill="#F8D24E"/>
<ellipse cx="91.2225" cy="42.8293" rx="2.68145" ry="2.8898" fill="#F8D24E"/>
<ellipse cx="97.0311" cy="38.9757" rx="2.68145" ry="2.8898" fill="#F8D24E"/>
<ellipse cx="103.735" cy="34.6413" rx="2.68145" ry="2.8898" fill="#F8D24E"/>
<ellipse cx="109.992" cy="30.7882" rx="2.68145" ry="2.8898" fill="#F8D24E"/>
<ellipse cx="95.2459" cy="48.1269" rx="2.68145" ry="2.8898" fill="#F8D24E"/>
<ellipse cx="101.056" cy="44.2736" rx="2.68145" ry="2.8898" fill="#F8D24E"/>
<ellipse cx="109.1" cy="48.6083" rx="2.68145" ry="2.8898" fill="#F8D24E"/>
<ellipse cx="107.761" cy="39.9389" rx="2.68145" ry="2.8898" fill="#F8D24E"/>
<ellipse cx="115.804" cy="44.2736" rx="2.68145" ry="2.8898" fill="#F8D24E"/>
<ellipse cx="122.061" cy="48.6083" rx="2.68145" ry="2.8898" fill="#F8D24E"/>
<ellipse cx="114.016" cy="36.0856" rx="2.68145" ry="2.8898" fill="#F8D24E"/>
<ellipse cx="122.061" cy="40.4201" rx="2.68145" ry="2.8898" fill="#F8D24E"/>
<ellipse cx="128.318" cy="44.7553" rx="2.68145" ry="2.8898" fill="#F8D24E"/>
<ellipse cx="23.2957" cy="16.3395" rx="2.68145" ry="2.8898" fill="#F8D24E"/>
<ellipse cx="29.1043" cy="12.486" rx="2.68145" ry="2.8898" fill="#F8D24E"/>
<ellipse cx="35.8104" cy="8.15176" rx="2.68145" ry="2.8898" fill="#F8D24E"/>
<ellipse cx="42.0643" cy="4.29874" rx="2.68145" ry="2.8898" fill="#F8D24E"/>
<ellipse cx="12.1209" cy="15.8568" rx="2.68145" ry="2.8898" fill="#F8D24E"/>
<ellipse cx="17.9295" cy="12.0041" rx="2.68145" ry="2.8898" fill="#F8D24E"/>
<ellipse cx="24.6336" cy="7.66983" rx="2.68145" ry="2.8898" fill="#F8D24E"/>
<ellipse cx="30.8895" cy="3.8168" rx="2.68145" ry="2.8898" fill="#F8D24E"/>
<ellipse cx="37.1473" cy="48.1269" rx="2.68145" ry="2.8898" fill="#F8D24E"/>
<ellipse cx="42.9559" cy="44.2736" rx="2.68145" ry="2.8898" fill="#F8D24E"/>
<ellipse cx="49.66" cy="39.9389" rx="2.68145" ry="2.8898" fill="#F8D24E"/>
<ellipse cx="55.9168" cy="36.0856" rx="2.68145" ry="2.8898" fill="#F8D24E"/>
<ellipse cx="29.9969" cy="45.2375" rx="2.68145" ry="2.8898" fill="#F8D24E"/>
<ellipse cx="35.8064" cy="41.3842" rx="2.68145" ry="2.8898" fill="#F8D24E"/>
<ellipse cx="42.5096" cy="37.0492" rx="2.68145" ry="2.8898" fill="#F8D24E"/>
<ellipse cx="48.7664" cy="33.1964" rx="2.68145" ry="2.8898" fill="#F8D24E"/>
<ellipse cx="32.6785" cy="35.123" rx="2.68145" ry="2.8898" fill="#F8D24E"/>
<ellipse cx="38.4871" cy="31.2699" rx="2.68145" ry="2.8898" fill="#F8D24E"/>
<ellipse cx="45.1932" cy="26.935" rx="2.68145" ry="2.8898" fill="#F8D24E"/>
<ellipse cx="51.4481" cy="23.0822" rx="2.68145" ry="2.8898" fill="#F8D24E"/>
<ellipse cx="32.6785" cy="18.2655" rx="2.68145" ry="2.8898" fill="#F8D24E"/>
<ellipse cx="38.4871" cy="14.412" rx="2.68145" ry="2.8898" fill="#F8D24E"/>
<ellipse cx="45.1932" cy="10.0778" rx="2.68145" ry="2.8898" fill="#F8D24E"/>
<ellipse cx="51.4481" cy="6.22452" rx="2.68145" ry="2.8898" fill="#F8D24E"/>
<ellipse cx="31.3377" cy="27.4174" rx="2.68145" ry="2.8898" fill="#F8D24E"/>
<ellipse cx="37.1482" cy="23.5636" rx="2.68145" ry="2.8898" fill="#F8D24E"/>
<ellipse cx="43.8514" cy="19.2292" rx="2.68145" ry="2.8898" fill="#F8D24E"/>
<ellipse cx="50.1072" cy="15.3764" rx="2.68145" ry="2.8898" fill="#F8D24E"/>
<ellipse cx="3.18243" cy="13.4491" rx="2.68145" ry="2.8898" fill="#F8D24E"/>
<ellipse cx="8.99297" cy="9.59585" rx="2.68145" ry="2.8898" fill="#F8D24E"/>
<ellipse cx="15.6971" cy="5.26163" rx="2.68145" ry="2.8898" fill="#F8D24E"/>
<path d="M15.2498 16.3389C16.7307 16.3389 17.9313 15.0451 17.9313 13.4491C17.9313 11.8531 16.7307 10.5593 15.2498 10.5593C13.7689 10.5593 12.5684 11.8531 12.5684 13.4491C12.5684 15.0451 13.7689 16.3389 15.2498 16.3389Z" fill="#F8D24E"/>
</svg>
